<svg width="1920" height="3240" viewBox="0 0 1920 3240" fill="none" xmlns="http://www.w3.org/2000/svg">
<path d="M-1180.66 267.376C-1134.93 233.243 -1098.74 202.352 -1072.12 174.704C-1045.5 146.715 -1032.18 120.603 -1032.18 96.368C-1032.18 88.176 -1034.06 81.8613 -1037.82 77.424C-1041.23 72.9866 -1045.84 70.768 -1051.64 70.768C-1058.47 70.768 -1063.93 74.352 -1068.02 81.52C-1071.78 88.3466 -1073.14 98.928 -1072.12 113.264H-1182.2C-1181.18 81.52 -1174.35 55.408 -1161.72 34.928C-1148.75 14.448 -1132.02 -0.570689 -1111.54 -10.128C-1091.06 -19.6854 -1068.54 -24.464 -1043.96 -24.464C-1000.27 -24.464 -968.355 -13.8827 -948.216 7.27997C-927.736 28.1013 -917.496 54.896 -917.496 87.664C-917.496 122.139 -928.589 154.565 -950.776 184.944C-972.621 214.981 -1000.1 240.411 -1033.21 261.232H-915.96V352.88H-1180.66V267.376ZM-493.864 67.184C-457 67.184 -428.499 78.2773 -408.36 100.464C-387.88 122.651 -377.64 152.688 -377.64 190.576V358H-490.792V204.912C-490.792 192.624 -494.547 183.067 -502.056 176.24C-509.224 169.072 -518.952 165.488 -531.24 165.488C-543.869 165.488 -553.768 169.072 -560.936 176.24C-568.104 183.067 -571.688 192.624 -571.688 204.912V358H-684.84V204.912C-684.84 192.624 -688.595 183.067 -696.104 176.24C-703.272 169.072 -713 165.488 -725.288 165.488C-737.917 165.488 -747.816 169.072 -754.984 176.24C-762.152 183.067 -765.736 192.624 -765.736 204.912V358H-879.4V69.232H-765.736V108.144C-757.544 95.856 -746.451 85.9573 -732.456 78.448C-718.12 70.9387 -701.395 67.184 -682.28 67.184C-661.459 67.184 -643.027 71.792 -626.984 81.008C-610.941 89.8826 -598.141 102.512 -588.584 118.896C-578.003 103.877 -564.52 91.5893 -548.136 82.032C-531.752 72.1333 -513.661 67.184 -493.864 67.184ZM-343.76 213.616C-343.76 183.237 -338.64 156.955 -328.4 134.768C-317.819 112.24 -303.483 95.1733 -285.392 83.568C-267.301 71.6213 -246.992 65.648 -224.464 65.648C-205.691 65.648 -189.477 69.5733 -175.824 77.424C-162.171 84.9333 -151.76 95.344 -144.592 108.656V69.232H-31.44V358H-144.592V318.576C-151.76 331.888 -162.171 342.469 -175.824 350.32C-189.477 357.829 -205.691 361.584 -224.464 361.584C-246.992 361.584 -267.301 355.781 -285.392 344.176C-303.483 332.229 -317.819 315.163 -328.4 292.976C-338.64 270.448 -343.76 243.995 -343.76 213.616ZM-144.592 213.616C-144.592 198.256 -148.517 186.309 -156.368 177.776C-164.219 169.243 -174.288 164.976 -186.576 164.976C-198.864 164.976 -208.933 169.243 -216.784 177.776C-224.635 186.309 -228.56 198.256 -228.56 213.616C-228.56 228.976 -224.635 240.923 -216.784 249.456C-208.933 257.989 -198.864 262.256 -186.576 262.256C-174.288 262.256 -164.219 257.989 -156.368 249.456C-148.517 240.923 -144.592 228.976 -144.592 213.616ZM199.312 261.232V358H156.304C77.1147 358 37.52 318.576 37.52 239.728V163.952H1.68V69.232H37.52V-0.400024H151.184V69.232H198.288V163.952H151.184V241.776C151.184 248.603 152.72 253.552 155.792 256.624C159.205 259.696 164.667 261.232 172.176 261.232H199.312ZM227.24 213.616C227.24 183.579 233.384 157.467 245.672 135.28C258.301 112.752 275.709 95.5146 297.896 83.568C320.424 71.6213 346.024 65.648 374.696 65.648C412.243 65.648 443.816 76.2293 469.416 97.392C495.357 118.555 511.741 147.909 518.568 185.456H398.248C393.811 170.437 385.107 162.928 372.136 162.928C362.92 162.928 355.581 167.195 350.12 175.728C345 184.261 342.44 196.891 342.44 213.616C342.44 230.341 345 242.971 350.12 251.504C355.581 260.037 362.92 264.304 372.136 264.304C385.107 264.304 393.811 256.795 398.248 241.776H518.568C511.741 279.323 495.357 308.677 469.416 329.84C443.816 351.003 412.243 361.584 374.696 361.584C346.024 361.584 320.424 355.611 297.896 343.664C275.709 331.717 258.301 314.651 245.672 292.464C233.384 269.936 227.24 243.653 227.24 213.616ZM756.84 67.184C789.949 67.184 815.72 78.2773 834.152 100.464C852.925 122.651 862.312 152.688 862.312 190.576V358H749.16V204.912C749.16 191.259 745.405 180.507 737.896 172.656C730.728 164.464 721 160.368 708.712 160.368C696.083 160.368 686.184 164.464 679.016 172.656C671.848 180.507 668.264 191.259 668.264 204.912V358H554.6V-20.88H668.264V113.264C677.139 99.6107 688.915 88.5173 703.592 79.984C718.611 71.4507 736.36 67.184 756.84 67.184Z" fill="#F0805C" fill-opacity="0.3"/>
<path d="M884.336 267.376C930.075 233.243 966.256 202.352 992.88 174.704C1019.5 146.715 1032.82 120.603 1032.82 96.368C1032.82 88.176 1030.94 81.8613 1027.18 77.424C1023.77 72.9866 1019.16 70.768 1013.36 70.768C1006.53 70.768 1001.07 74.352 996.976 81.52C993.221 88.3466 991.856 98.928 992.88 113.264H882.8C883.824 81.52 890.651 55.408 903.28 34.928C916.251 14.448 932.976 -0.570689 953.456 -10.128C973.936 -19.6854 996.464 -24.464 1021.04 -24.464C1064.73 -24.464 1096.65 -13.8827 1116.78 7.27997C1137.26 28.1013 1147.5 54.896 1147.5 87.664C1147.5 122.139 1136.41 154.565 1114.22 184.944C1092.38 214.981 1064.9 240.411 1031.79 261.232H1149.04V352.88H884.336V267.376ZM1571.14 67.184C1608 67.184 1636.5 78.2773 1656.64 100.464C1677.12 122.651 1687.36 152.688 1687.36 190.576V358H1574.21V204.912C1574.21 192.624 1570.45 183.067 1562.94 176.24C1555.78 169.072 1546.05 165.488 1533.76 165.488C1521.13 165.488 1511.23 169.072 1504.06 176.24C1496.9 183.067 1493.31 192.624 1493.31 204.912V358H1380.16V204.912C1380.16 192.624 1376.41 183.067 1368.9 176.24C1361.73 169.072 1352 165.488 1339.71 165.488C1327.08 165.488 1317.18 169.072 1310.02 176.24C1302.85 183.067 1299.26 192.624 1299.26 204.912V358H1185.6V69.232H1299.26V108.144C1307.46 95.856 1318.55 85.9573 1332.54 78.448C1346.88 70.9387 1363.61 67.184 1382.72 67.184C1403.54 67.184 1421.97 71.792 1438.02 81.008C1454.06 89.8826 1466.86 102.512 1476.42 118.896C1487 103.877 1500.48 91.5893 1516.86 82.032C1533.25 72.1333 1551.34 67.184 1571.14 67.184ZM1721.24 213.616C1721.24 183.237 1726.36 156.955 1736.6 134.768C1747.18 112.24 1761.52 95.1733 1779.61 83.568C1797.7 71.6213 1818.01 65.648 1840.54 65.648C1859.31 65.648 1875.52 69.5733 1889.18 77.424C1902.83 84.9333 1913.24 95.344 1920.41 108.656V69.232H2033.56V358H1920.41V318.576C1913.24 331.888 1902.83 342.469 1889.18 350.32C1875.52 357.829 1859.31 361.584 1840.54 361.584C1818.01 361.584 1797.7 355.781 1779.61 344.176C1761.52 332.229 1747.18 315.163 1736.6 292.976C1726.36 270.448 1721.24 243.995 1721.24 213.616ZM1920.41 213.616C1920.41 198.256 1916.48 186.309 1908.63 177.776C1900.78 169.243 1890.71 164.976 1878.42 164.976C1866.14 164.976 1856.07 169.243 1848.22 177.776C1840.37 186.309 1836.44 198.256 1836.44 213.616C1836.44 228.976 1840.37 240.923 1848.22 249.456C1856.07 257.989 1866.14 262.256 1878.42 262.256C1890.71 262.256 1900.78 257.989 1908.63 249.456C1916.48 240.923 1920.41 228.976 1920.41 213.616ZM2264.31 261.232V358H2221.3C2142.11 358 2102.52 318.576 2102.52 239.728V163.952H2066.68V69.232H2102.52V-0.400024H2216.18V69.232H2263.29V163.952H2216.18V241.776C2216.18 248.603 2217.72 253.552 2220.79 256.624C2224.21 259.696 2229.67 261.232 2237.18 261.232H2264.31ZM2292.24 213.616C2292.24 183.579 2298.38 157.467 2310.67 135.28C2323.3 112.752 2340.71 95.5146 2362.9 83.568C2385.42 71.6213 2411.02 65.648 2439.7 65.648C2477.24 65.648 2508.82 76.2293 2534.42 97.392C2560.36 118.555 2576.74 147.909 2583.57 185.456H2463.25C2458.81 170.437 2450.11 162.928 2437.14 162.928C2427.92 162.928 2420.58 167.195 2415.12 175.728C2410 184.261 2407.44 196.891 2407.44 213.616C2407.44 230.341 2410 242.971 2415.12 251.504C2420.58 260.037 2427.92 264.304 2437.14 264.304C2450.11 264.304 2458.81 256.795 2463.25 241.776H2583.57C2576.74 279.323 2560.36 308.677 2534.42 329.84C2508.82 351.003 2477.24 361.584 2439.7 361.584C2411.02 361.584 2385.42 355.611 2362.9 343.664C2340.71 331.717 2323.3 314.651 2310.67 292.464C2298.38 269.936 2292.24 243.653 2292.24 213.616ZM2821.84 67.184C2854.95 67.184 2880.72 78.2773 2899.15 100.464C2917.93 122.651 2927.31 152.688 2927.31 190.576V358H2814.16V204.912C2814.16 191.259 2810.41 180.507 2802.9 172.656C2795.73 164.464 2786 160.368 2773.71 160.368C2761.08 160.368 2751.18 164.464 2744.02 172.656C2736.85 180.507 2733.26 191.259 2733.26 204.912V358H2619.6V-20.88H2733.26V113.264C2742.14 99.6107 2753.91 88.5173 2768.59 79.984C2783.61 71.4507 2801.36 67.184 2821.84 67.184Z" fill="#F0805C" fill-opacity="0.3"/>
<path d="M-2.664 656.376C43.0747 622.243 79.256 591.352 105.88 563.704C132.504 535.715 145.816 509.603 145.816 485.368C145.816 477.176 143.939 470.861 140.184 466.424C136.771 461.987 132.163 459.768 126.36 459.768C119.533 459.768 114.072 463.352 109.976 470.52C106.221 477.347 104.856 487.928 105.88 502.264H-4.2C-3.176 470.52 3.65067 444.408 16.28 423.928C29.2507 403.448 45.976 388.429 66.456 378.872C86.936 369.315 109.464 364.536 134.04 364.536C177.731 364.536 209.645 375.117 229.784 396.28C250.264 417.101 260.504 443.896 260.504 476.664C260.504 511.139 249.411 543.565 227.224 573.944C205.379 603.981 177.901 629.411 144.792 650.232H262.04V741.88H-2.664V656.376ZM684.136 456.184C721 456.184 749.501 467.277 769.64 489.464C790.12 511.651 800.36 541.688 800.36 579.576V747H687.208V593.912C687.208 581.624 683.453 572.067 675.944 565.24C668.776 558.072 659.048 554.488 646.76 554.488C634.131 554.488 624.232 558.072 617.064 565.24C609.896 572.067 606.312 581.624 606.312 593.912V747H493.16V593.912C493.16 581.624 489.405 572.067 481.896 565.24C474.728 558.072 465 554.488 452.712 554.488C440.083 554.488 430.184 558.072 423.016 565.24C415.848 572.067 412.264 581.624 412.264 593.912V747H298.6V458.232H412.264V497.144C420.456 484.856 431.549 474.957 445.544 467.448C459.88 459.939 476.605 456.184 495.72 456.184C516.541 456.184 534.973 460.792 551.016 470.008C567.059 478.883 579.859 491.512 589.416 507.896C599.997 492.877 613.48 480.589 629.864 471.032C646.248 461.133 664.339 456.184 684.136 456.184ZM834.24 602.616C834.24 572.237 839.36 545.955 849.6 523.768C860.181 501.24 874.517 484.173 892.608 472.568C910.699 460.621 931.008 454.648 953.536 454.648C972.309 454.648 988.523 458.573 1002.18 466.424C1015.83 473.933 1026.24 484.344 1033.41 497.656V458.232H1146.56V747H1033.41V707.576C1026.24 720.888 1015.83 731.469 1002.18 739.32C988.523 746.829 972.309 750.584 953.536 750.584C931.008 750.584 910.699 744.781 892.608 733.176C874.517 721.229 860.181 704.163 849.6 681.976C839.36 659.448 834.24 632.995 834.24 602.616ZM1033.41 602.616C1033.41 587.256 1029.48 575.309 1021.63 566.776C1013.78 558.243 1003.71 553.976 991.424 553.976C979.136 553.976 969.067 558.243 961.216 566.776C953.365 575.309 949.44 587.256 949.44 602.616C949.44 617.976 953.365 629.923 961.216 638.456C969.067 646.989 979.136 651.256 991.424 651.256C1003.71 651.256 1013.78 646.989 1021.63 638.456C1029.48 629.923 1033.41 617.976 1033.41 602.616ZM1377.31 650.232V747H1334.3C1255.11 747 1215.52 707.576 1215.52 628.728V552.952H1179.68V458.232H1215.52V388.6H1329.18V458.232H1376.29V552.952H1329.18V630.776C1329.18 637.603 1330.72 642.552 1333.79 645.624C1337.21 648.696 1342.67 650.232 1350.18 650.232H1377.31ZM1405.24 602.616C1405.24 572.579 1411.38 546.467 1423.67 524.28C1436.3 501.752 1453.71 484.515 1475.9 472.568C1498.42 460.621 1524.02 454.648 1552.7 454.648C1590.24 454.648 1621.82 465.229 1647.42 486.392C1673.36 507.555 1689.74 536.909 1696.57 574.456H1576.25C1571.81 559.437 1563.11 551.928 1550.14 551.928C1540.92 551.928 1533.58 556.195 1528.12 564.728C1523 573.261 1520.44 585.891 1520.44 602.616C1520.44 619.341 1523 631.971 1528.12 640.504C1533.58 649.037 1540.92 653.304 1550.14 653.304C1563.11 653.304 1571.81 645.795 1576.25 630.776H1696.57C1689.74 668.323 1673.36 697.677 1647.42 718.84C1621.82 740.003 1590.24 750.584 1552.7 750.584C1524.02 750.584 1498.42 744.611 1475.9 732.664C1453.71 720.717 1436.3 703.651 1423.67 681.464C1411.38 658.936 1405.24 632.653 1405.24 602.616ZM1934.84 456.184C1967.95 456.184 1993.72 467.277 2012.15 489.464C2030.93 511.651 2040.31 541.688 2040.31 579.576V747H1927.16V593.912C1927.16 580.259 1923.41 569.507 1915.9 561.656C1908.73 553.464 1899 549.368 1886.71 549.368C1874.08 549.368 1864.18 553.464 1857.02 561.656C1849.85 569.507 1846.26 580.259 1846.26 593.912V747H1732.6V368.12H1846.26V502.264C1855.14 488.611 1866.91 477.517 1881.59 468.984C1896.61 460.451 1914.36 456.184 1934.84 456.184Z" fill="#F0805C" fill-opacity="0.3"/>
<path d="M-531.664 1045.38C-485.925 1011.24 -449.744 980.352 -423.12 952.704C-396.496 924.715 -383.184 898.603 -383.184 874.368C-383.184 866.176 -385.061 859.861 -388.816 855.424C-392.229 850.987 -396.837 848.768 -402.64 848.768C-409.467 848.768 -414.928 852.352 -419.024 859.52C-422.779 866.347 -424.144 876.928 -423.12 891.264H-533.2C-532.176 859.52 -525.349 833.408 -512.72 812.928C-499.749 792.448 -483.024 777.429 -462.544 767.872C-442.064 758.315 -419.536 753.536 -394.96 753.536C-351.269 753.536 -319.355 764.117 -299.216 785.28C-278.736 806.101 -268.496 832.896 -268.496 865.664C-268.496 900.139 -279.589 932.565 -301.776 962.944C-323.621 992.981 -351.099 1018.41 -384.208 1039.23H-266.96V1130.88H-531.664V1045.38ZM155.136 845.184C192 845.184 220.501 856.277 240.64 878.464C261.12 900.651 271.36 930.688 271.36 968.576V1136H158.208V982.912C158.208 970.624 154.453 961.067 146.944 954.24C139.776 947.072 130.048 943.488 117.76 943.488C105.131 943.488 95.232 947.072 88.064 954.24C80.896 961.067 77.312 970.624 77.312 982.912V1136H-35.84V982.912C-35.84 970.624 -39.5947 961.067 -47.104 954.24C-54.272 947.072 -64 943.488 -76.288 943.488C-88.9173 943.488 -98.816 947.072 -105.984 954.24C-113.152 961.067 -116.736 970.624 -116.736 982.912V1136H-230.4V847.232H-116.736V886.144C-108.544 873.856 -97.4507 863.957 -83.456 856.448C-69.12 848.939 -52.3947 845.184 -33.28 845.184C-12.4587 845.184 5.97335 849.792 22.016 859.008C38.0587 867.883 50.8587 880.512 60.416 896.896C70.9974 881.877 84.48 869.589 100.864 860.032C117.248 850.133 135.339 845.184 155.136 845.184ZM305.24 991.616C305.24 961.237 310.36 934.955 320.6 912.768C331.181 890.24 345.517 873.173 363.608 861.568C381.699 849.621 402.008 843.648 424.536 843.648C443.309 843.648 459.523 847.573 473.176 855.424C486.829 862.933 497.24 873.344 504.408 886.656V847.232H617.56V1136H504.408V1096.58C497.24 1109.89 486.829 1120.47 473.176 1128.32C459.523 1135.83 443.309 1139.58 424.536 1139.58C402.008 1139.58 381.699 1133.78 363.608 1122.18C345.517 1110.23 331.181 1093.16 320.6 1070.98C310.36 1048.45 305.24 1021.99 305.24 991.616ZM504.408 991.616C504.408 976.256 500.483 964.309 492.632 955.776C484.781 947.243 474.712 942.976 462.424 942.976C450.136 942.976 440.067 947.243 432.216 955.776C424.365 964.309 420.44 976.256 420.44 991.616C420.44 1006.98 424.365 1018.92 432.216 1027.46C440.067 1035.99 450.136 1040.26 462.424 1040.26C474.712 1040.26 484.781 1035.99 492.632 1027.46C500.483 1018.92 504.408 1006.98 504.408 991.616ZM848.312 1039.23V1136H805.304C726.115 1136 686.52 1096.58 686.52 1017.73V941.952H650.68V847.232H686.52V777.6H800.184V847.232H847.288V941.952H800.184V1019.78C800.184 1026.6 801.72 1031.55 804.792 1034.62C808.205 1037.7 813.667 1039.23 821.176 1039.23H848.312ZM876.24 991.616C876.24 961.579 882.384 935.467 894.672 913.28C907.301 890.752 924.709 873.515 946.896 861.568C969.424 849.621 995.024 843.648 1023.7 843.648C1061.24 843.648 1092.82 854.229 1118.42 875.392C1144.36 896.555 1160.74 925.909 1167.57 963.456H1047.25C1042.81 948.437 1034.11 940.928 1021.14 940.928C1011.92 940.928 1004.58 945.195 999.12 953.728C994 962.261 991.44 974.891 991.44 991.616C991.44 1008.34 994 1020.97 999.12 1029.5C1004.58 1038.04 1011.92 1042.3 1021.14 1042.3C1034.11 1042.3 1042.81 1034.79 1047.25 1019.78H1167.57C1160.74 1057.32 1144.36 1086.68 1118.42 1107.84C1092.82 1129 1061.24 1139.58 1023.7 1139.58C995.024 1139.58 969.424 1133.61 946.896 1121.66C924.709 1109.72 907.301 1092.65 894.672 1070.46C882.384 1047.94 876.24 1021.65 876.24 991.616ZM1405.84 845.184C1438.95 845.184 1464.72 856.277 1483.15 878.464C1501.93 900.651 1511.31 930.688 1511.31 968.576V1136H1398.16V982.912C1398.16 969.259 1394.41 958.507 1386.9 950.656C1379.73 942.464 1370 938.368 1357.71 938.368C1345.08 938.368 1335.18 942.464 1328.02 950.656C1320.85 958.507 1317.26 969.259 1317.26 982.912V1136H1203.6V757.12H1317.26V891.264C1326.14 877.611 1337.91 866.517 1352.59 857.984C1367.61 849.451 1385.36 845.184 1405.84 845.184Z" fill="#F0805C" fill-opacity="0.3"/>
<path d="M1549.34 1045.38C1595.07 1011.24 1631.26 980.352 1657.88 952.704C1684.5 924.715 1697.82 898.603 1697.82 874.368C1697.82 866.176 1695.94 859.861 1692.18 855.424C1688.77 850.987 1684.16 848.768 1678.36 848.768C1671.53 848.768 1666.07 852.352 1661.98 859.52C1658.22 866.347 1656.86 876.928 1657.88 891.264H1547.8C1548.82 859.52 1555.65 833.408 1568.28 812.928C1581.25 792.448 1597.98 777.429 1618.46 767.872C1638.94 758.315 1661.46 753.536 1686.04 753.536C1729.73 753.536 1761.65 764.117 1781.78 785.28C1802.26 806.101 1812.5 832.896 1812.5 865.664C1812.5 900.139 1801.41 932.565 1779.22 962.944C1757.38 992.981 1729.9 1018.41 1696.79 1039.23H1814.04V1130.88H1549.34V1045.38ZM2236.14 845.184C2273 845.184 2301.5 856.277 2321.64 878.464C2342.12 900.651 2352.36 930.688 2352.36 968.576V1136H2239.21V982.912C2239.21 970.624 2235.45 961.067 2227.94 954.24C2220.78 947.072 2211.05 943.488 2198.76 943.488C2186.13 943.488 2176.23 947.072 2169.06 954.24C2161.9 961.067 2158.31 970.624 2158.31 982.912V1136H2045.16V982.912C2045.16 970.624 2041.41 961.067 2033.9 954.24C2026.73 947.072 2017 943.488 2004.71 943.488C1992.08 943.488 1982.18 947.072 1975.02 954.24C1967.85 961.067 1964.26 970.624 1964.26 982.912V1136H1850.6V847.232H1964.26V886.144C1972.46 873.856 1983.55 863.957 1997.54 856.448C2011.88 848.939 2028.61 845.184 2047.72 845.184C2068.54 845.184 2086.97 849.792 2103.02 859.008C2119.06 867.883 2131.86 880.512 2141.42 896.896C2152 881.877 2165.48 869.589 2181.86 860.032C2198.25 850.133 2216.34 845.184 2236.14 845.184ZM2386.24 991.616C2386.24 961.237 2391.36 934.955 2401.6 912.768C2412.18 890.24 2426.52 873.173 2444.61 861.568C2462.7 849.621 2483.01 843.648 2505.54 843.648C2524.31 843.648 2540.52 847.573 2554.18 855.424C2567.83 862.933 2578.24 873.344 2585.41 886.656V847.232H2698.56V1136H2585.41V1096.58C2578.24 1109.89 2567.83 1120.47 2554.18 1128.32C2540.52 1135.83 2524.31 1139.58 2505.54 1139.58C2483.01 1139.58 2462.7 1133.78 2444.61 1122.18C2426.52 1110.23 2412.18 1093.16 2401.6 1070.98C2391.36 1048.45 2386.24 1021.99 2386.24 991.616ZM2585.41 991.616C2585.41 976.256 2581.48 964.309 2573.63 955.776C2565.78 947.243 2555.71 942.976 2543.42 942.976C2531.14 942.976 2521.07 947.243 2513.22 955.776C2505.37 964.309 2501.44 976.256 2501.44 991.616C2501.44 1006.98 2505.37 1018.92 2513.22 1027.46C2521.07 1035.99 2531.14 1040.26 2543.42 1040.26C2555.71 1040.26 2565.78 1035.99 2573.63 1027.46C2581.48 1018.92 2585.41 1006.98 2585.41 991.616ZM2929.31 1039.23V1136H2886.3C2807.11 1136 2767.52 1096.58 2767.52 1017.73V941.952H2731.68V847.232H2767.52V777.6H2881.18V847.232H2928.29V941.952H2881.18V1019.78C2881.18 1026.6 2882.72 1031.55 2885.79 1034.62C2889.21 1037.7 2894.67 1039.23 2902.18 1039.23H2929.31ZM2957.24 991.616C2957.24 961.579 2963.38 935.467 2975.67 913.28C2988.3 890.752 3005.71 873.515 3027.9 861.568C3050.42 849.621 3076.02 843.648 3104.7 843.648C3142.24 843.648 3173.82 854.229 3199.42 875.392C3225.36 896.555 3241.74 925.909 3248.57 963.456H3128.25C3123.81 948.437 3115.11 940.928 3102.14 940.928C3092.92 940.928 3085.58 945.195 3080.12 953.728C3075 962.261 3072.44 974.891 3072.44 991.616C3072.44 1008.34 3075 1020.97 3080.12 1029.5C3085.58 1038.04 3092.92 1042.3 3102.14 1042.3C3115.11 1042.3 3123.81 1034.79 3128.25 1019.78H3248.57C3241.74 1057.32 3225.36 1086.68 3199.42 1107.84C3173.82 1129 3142.24 1139.58 3104.7 1139.58C3076.02 1139.58 3050.42 1133.61 3027.9 1121.66C3005.71 1109.72 2988.3 1092.65 2975.67 1070.46C2963.38 1047.94 2957.24 1021.65 2957.24 991.616ZM3486.84 845.184C3519.95 845.184 3545.72 856.277 3564.15 878.464C3582.93 900.651 3592.31 930.688 3592.31 968.576V1136H3479.16V982.912C3479.16 969.259 3475.41 958.507 3467.9 950.656C3460.73 942.464 3451 938.368 3438.71 938.368C3426.08 938.368 3416.18 942.464 3409.02 950.656C3401.85 958.507 3398.26 969.259 3398.26 982.912V1136H3284.6V757.12H3398.26V891.264C3407.14 877.611 3418.91 866.517 3433.59 857.984C3448.61 849.451 3466.36 845.184 3486.84 845.184Z" fill="#F0805C" fill-opacity="0.3"/>
<path d="M-846.664 1440.38C-800.925 1406.24 -764.744 1375.35 -738.12 1347.7C-711.496 1319.71 -698.184 1293.6 -698.184 1269.37C-698.184 1261.18 -700.061 1254.86 -703.816 1250.42C-707.229 1245.99 -711.837 1243.77 -717.64 1243.77C-724.467 1243.77 -729.928 1247.35 -734.024 1254.52C-737.779 1261.35 -739.144 1271.93 -738.12 1286.26H-848.2C-847.176 1254.52 -840.349 1228.41 -827.72 1207.93C-814.749 1187.45 -798.024 1172.43 -777.544 1162.87C-757.064 1153.31 -734.536 1148.54 -709.96 1148.54C-666.269 1148.54 -634.355 1159.12 -614.216 1180.28C-593.736 1201.1 -583.496 1227.9 -583.496 1260.66C-583.496 1295.14 -594.589 1327.57 -616.776 1357.94C-638.621 1387.98 -666.099 1413.41 -699.208 1434.23H-581.96V1525.88H-846.664V1440.38ZM-159.864 1240.18C-123 1240.18 -94.4986 1251.28 -74.36 1273.46C-53.88 1295.65 -43.64 1325.69 -43.64 1363.58V1531H-156.792V1377.91C-156.792 1365.62 -160.547 1356.07 -168.056 1349.24C-175.224 1342.07 -184.952 1338.49 -197.24 1338.49C-209.869 1338.49 -219.768 1342.07 -226.936 1349.24C-234.104 1356.07 -237.688 1365.62 -237.688 1377.91V1531H-350.84V1377.91C-350.84 1365.62 -354.595 1356.07 -362.104 1349.24C-369.272 1342.07 -379 1338.49 -391.288 1338.49C-403.917 1338.49 -413.816 1342.07 -420.984 1349.24C-428.152 1356.07 -431.736 1365.62 -431.736 1377.91V1531H-545.4V1242.23H-431.736V1281.14C-423.544 1268.86 -412.451 1258.96 -398.456 1251.45C-384.12 1243.94 -367.395 1240.18 -348.28 1240.18C-327.459 1240.18 -309.027 1244.79 -292.984 1254.01C-276.941 1262.88 -264.141 1275.51 -254.584 1291.9C-244.003 1276.88 -230.52 1264.59 -214.136 1255.03C-197.752 1245.13 -179.661 1240.18 -159.864 1240.18ZM-9.76 1386.62C-9.76 1356.24 -4.64 1329.95 5.6 1307.77C16.1813 1285.24 30.5173 1268.17 48.608 1256.57C66.6987 1244.62 87.008 1238.65 109.536 1238.65C128.309 1238.65 144.523 1242.57 158.176 1250.42C171.829 1257.93 182.24 1268.34 189.408 1281.66V1242.23H302.56V1531H189.408V1491.58C182.24 1504.89 171.829 1515.47 158.176 1523.32C144.523 1530.83 128.309 1534.58 109.536 1534.58C87.008 1534.58 66.6987 1528.78 48.608 1517.18C30.5173 1505.23 16.1813 1488.16 5.6 1465.98C-4.64 1443.45 -9.76 1416.99 -9.76 1386.62ZM189.408 1386.62C189.408 1371.26 185.483 1359.31 177.632 1350.78C169.781 1342.24 159.712 1337.98 147.424 1337.98C135.136 1337.98 125.067 1342.24 117.216 1350.78C109.365 1359.31 105.44 1371.26 105.44 1386.62C105.44 1401.98 109.365 1413.92 117.216 1422.46C125.067 1430.99 135.136 1435.26 147.424 1435.26C159.712 1435.26 169.781 1430.99 177.632 1422.46C185.483 1413.92 189.408 1401.98 189.408 1386.62ZM533.312 1434.23V1531H490.304C411.115 1531 371.52 1491.58 371.52 1412.73V1336.95H335.68V1242.23H371.52V1172.6H485.184V1242.23H532.288V1336.95H485.184V1414.78C485.184 1421.6 486.72 1426.55 489.792 1429.62C493.205 1432.7 498.667 1434.23 506.176 1434.23H533.312ZM561.24 1386.62C561.24 1356.58 567.384 1330.47 579.672 1308.28C592.301 1285.75 609.709 1268.51 631.896 1256.57C654.424 1244.62 680.024 1238.65 708.696 1238.65C746.243 1238.65 777.816 1249.23 803.416 1270.39C829.357 1291.55 845.741 1320.91 852.568 1358.46H732.248C727.811 1343.44 719.107 1335.93 706.136 1335.93C696.92 1335.93 689.581 1340.19 684.12 1348.73C679 1357.26 676.44 1369.89 676.44 1386.62C676.44 1403.34 679 1415.97 684.12 1424.5C689.581 1433.04 696.92 1437.3 706.136 1437.3C719.107 1437.3 727.811 1429.79 732.248 1414.78H852.568C845.741 1452.32 829.357 1481.68 803.416 1502.84C777.816 1524 746.243 1534.58 708.696 1534.58C680.024 1534.58 654.424 1528.61 631.896 1516.66C609.709 1504.72 592.301 1487.65 579.672 1465.46C567.384 1442.94 561.24 1416.65 561.24 1386.62ZM1090.84 1240.18C1123.95 1240.18 1149.72 1251.28 1168.15 1273.46C1186.93 1295.65 1196.31 1325.69 1196.31 1363.58V1531H1083.16V1377.91C1083.16 1364.26 1079.41 1353.51 1071.9 1345.66C1064.73 1337.46 1055 1333.37 1042.71 1333.37C1030.08 1333.37 1020.18 1337.46 1013.02 1345.66C1005.85 1353.51 1002.26 1364.26 1002.26 1377.91V1531H888.6V1152.12H1002.26V1286.26C1011.14 1272.61 1022.91 1261.52 1037.59 1252.98C1052.61 1244.45 1070.36 1240.18 1090.84 1240.18Z" fill="#F0805C" fill-opacity="0.3"/>
<path d="M1234.34 1440.38C1280.07 1406.24 1316.26 1375.35 1342.88 1347.7C1369.5 1319.71 1382.82 1293.6 1382.82 1269.37C1382.82 1261.18 1380.94 1254.86 1377.18 1250.42C1373.77 1245.99 1369.16 1243.77 1363.36 1243.77C1356.53 1243.77 1351.07 1247.35 1346.98 1254.52C1343.22 1261.35 1341.86 1271.93 1342.88 1286.26H1232.8C1233.82 1254.52 1240.65 1228.41 1253.28 1207.93C1266.25 1187.45 1282.98 1172.43 1303.46 1162.87C1323.94 1153.31 1346.46 1148.54 1371.04 1148.54C1414.73 1148.54 1446.65 1159.12 1466.78 1180.28C1487.26 1201.1 1497.5 1227.9 1497.5 1260.66C1497.5 1295.14 1486.41 1327.57 1464.22 1357.94C1442.38 1387.98 1414.9 1413.41 1381.79 1434.23H1499.04V1525.88H1234.34V1440.38ZM1921.14 1240.18C1958 1240.18 1986.5 1251.28 2006.64 1273.46C2027.12 1295.65 2037.36 1325.69 2037.36 1363.58V1531H1924.21V1377.91C1924.21 1365.62 1920.45 1356.07 1912.94 1349.24C1905.78 1342.07 1896.05 1338.49 1883.76 1338.49C1871.13 1338.49 1861.23 1342.07 1854.06 1349.24C1846.9 1356.07 1843.31 1365.62 1843.31 1377.91V1531H1730.16V1377.91C1730.16 1365.62 1726.41 1356.07 1718.9 1349.24C1711.73 1342.07 1702 1338.49 1689.71 1338.49C1677.08 1338.49 1667.18 1342.07 1660.02 1349.24C1652.85 1356.07 1649.26 1365.62 1649.26 1377.91V1531H1535.6V1242.23H1649.26V1281.14C1657.46 1268.86 1668.55 1258.96 1682.54 1251.45C1696.88 1243.94 1713.61 1240.18 1732.72 1240.18C1753.54 1240.18 1771.97 1244.79 1788.02 1254.01C1804.06 1262.88 1816.86 1275.51 1826.42 1291.9C1837 1276.88 1850.48 1264.59 1866.86 1255.03C1883.25 1245.13 1901.34 1240.18 1921.14 1240.18ZM2071.24 1386.62C2071.24 1356.24 2076.36 1329.95 2086.6 1307.77C2097.18 1285.24 2111.52 1268.17 2129.61 1256.57C2147.7 1244.62 2168.01 1238.65 2190.54 1238.65C2209.31 1238.65 2225.52 1242.57 2239.18 1250.42C2252.83 1257.93 2263.24 1268.34 2270.41 1281.66V1242.23H2383.56V1531H2270.41V1491.58C2263.24 1504.89 2252.83 1515.47 2239.18 1523.32C2225.52 1530.83 2209.31 1534.58 2190.54 1534.58C2168.01 1534.58 2147.7 1528.78 2129.61 1517.18C2111.52 1505.23 2097.18 1488.16 2086.6 1465.98C2076.36 1443.45 2071.24 1416.99 2071.24 1386.62ZM2270.41 1386.62C2270.41 1371.26 2266.48 1359.31 2258.63 1350.78C2250.78 1342.24 2240.71 1337.98 2228.42 1337.98C2216.14 1337.98 2206.07 1342.24 2198.22 1350.78C2190.37 1359.31 2186.44 1371.26 2186.44 1386.62C2186.44 1401.98 2190.37 1413.92 2198.22 1422.46C2206.07 1430.99 2216.14 1435.26 2228.42 1435.26C2240.71 1435.26 2250.78 1430.99 2258.63 1422.46C2266.48 1413.92 2270.41 1401.98 2270.41 1386.62ZM2614.31 1434.23V1531H2571.3C2492.11 1531 2452.52 1491.58 2452.52 1412.73V1336.95H2416.68V1242.23H2452.52V1172.6H2566.18V1242.23H2613.29V1336.95H2566.18V1414.78C2566.18 1421.6 2567.72 1426.55 2570.79 1429.62C2574.21 1432.7 2579.67 1434.23 2587.18 1434.23H2614.31ZM2642.24 1386.62C2642.24 1356.58 2648.38 1330.47 2660.67 1308.28C2673.3 1285.75 2690.71 1268.51 2712.9 1256.57C2735.42 1244.62 2761.02 1238.65 2789.7 1238.65C2827.24 1238.65 2858.82 1249.23 2884.42 1270.39C2910.36 1291.55 2926.74 1320.91 2933.57 1358.46H2813.25C2808.81 1343.44 2800.11 1335.93 2787.14 1335.93C2777.92 1335.93 2770.58 1340.19 2765.12 1348.73C2760 1357.26 2757.44 1369.89 2757.44 1386.62C2757.44 1403.34 2760 1415.97 2765.12 1424.5C2770.58 1433.04 2777.92 1437.3 2787.14 1437.3C2800.11 1437.3 2808.81 1429.79 2813.25 1414.78H2933.57C2926.74 1452.32 2910.36 1481.68 2884.42 1502.84C2858.82 1524 2827.24 1534.58 2789.7 1534.58C2761.02 1534.58 2735.42 1528.61 2712.9 1516.66C2690.71 1504.72 2673.3 1487.65 2660.67 1465.46C2648.38 1442.94 2642.24 1416.65 2642.24 1386.62ZM3171.84 1240.18C3204.95 1240.18 3230.72 1251.28 3249.15 1273.46C3267.93 1295.65 3277.31 1325.69 3277.31 1363.58V1531H3164.16V1377.91C3164.16 1364.26 3160.41 1353.51 3152.9 1345.66C3145.73 1337.46 3136 1333.37 3123.71 1333.37C3111.08 1333.37 3101.18 1337.46 3094.02 1345.66C3086.85 1353.51 3083.26 1364.26 3083.26 1377.91V1531H2969.6V1152.12H3083.26V1286.26C3092.14 1272.61 3103.91 1261.52 3118.59 1252.98C3133.61 1244.45 3151.36 1240.18 3171.84 1240.18Z" fill="#F0805C" fill-opacity="0.3"/>
<path d="M-446.664 1829.38C-400.925 1795.24 -364.744 1764.35 -338.12 1736.7C-311.496 1708.71 -298.184 1682.6 -298.184 1658.37C-298.184 1650.18 -300.061 1643.86 -303.816 1639.42C-307.229 1634.99 -311.837 1632.77 -317.64 1632.77C-324.467 1632.77 -329.928 1636.35 -334.024 1643.52C-337.779 1650.35 -339.144 1660.93 -338.12 1675.26H-448.2C-447.176 1643.52 -440.349 1617.41 -427.72 1596.93C-414.749 1576.45 -398.024 1561.43 -377.544 1551.87C-357.064 1542.31 -334.536 1537.54 -309.96 1537.54C-266.269 1537.54 -234.355 1548.12 -214.216 1569.28C-193.736 1590.1 -183.496 1616.9 -183.496 1649.66C-183.496 1684.14 -194.589 1716.57 -216.776 1746.94C-238.621 1776.98 -266.099 1802.41 -299.208 1823.23H-181.96V1914.88H-446.664V1829.38ZM240.136 1629.18C277 1629.18 305.501 1640.28 325.64 1662.46C346.12 1684.65 356.36 1714.69 356.36 1752.58V1920H243.208V1766.91C243.208 1754.62 239.453 1745.07 231.944 1738.24C224.776 1731.07 215.048 1727.49 202.76 1727.49C190.131 1727.49 180.232 1731.07 173.064 1738.24C165.896 1745.07 162.312 1754.62 162.312 1766.91V1920H49.16V1766.91C49.16 1754.62 45.4053 1745.07 37.896 1738.24C30.728 1731.07 21 1727.49 8.71201 1727.49C-3.91733 1727.49 -13.816 1731.07 -20.984 1738.24C-28.152 1745.07 -31.736 1754.62 -31.736 1766.91V1920H-145.4V1631.23H-31.736V1670.14C-23.544 1657.86 -12.4507 1647.96 1.54401 1640.45C15.88 1632.94 32.6053 1629.18 51.72 1629.18C72.5413 1629.18 90.9733 1633.79 107.016 1643.01C123.059 1651.88 135.859 1664.51 145.416 1680.9C155.997 1665.88 169.48 1653.59 185.864 1644.03C202.248 1634.13 220.339 1629.18 240.136 1629.18ZM390.24 1775.62C390.24 1745.24 395.36 1718.95 405.6 1696.77C416.181 1674.24 430.517 1657.17 448.608 1645.57C466.699 1633.62 487.008 1627.65 509.536 1627.65C528.309 1627.65 544.523 1631.57 558.176 1639.42C571.829 1646.93 582.24 1657.34 589.408 1670.66V1631.23H702.56V1920H589.408V1880.58C582.24 1893.89 571.829 1904.47 558.176 1912.32C544.523 1919.83 528.309 1923.58 509.536 1923.58C487.008 1923.58 466.699 1917.78 448.608 1906.18C430.517 1894.23 416.181 1877.16 405.6 1854.98C395.36 1832.45 390.24 1805.99 390.24 1775.62ZM589.408 1775.62C589.408 1760.26 585.483 1748.31 577.632 1739.78C569.781 1731.24 559.712 1726.98 547.424 1726.98C535.136 1726.98 525.067 1731.24 517.216 1739.78C509.365 1748.31 505.44 1760.26 505.44 1775.62C505.44 1790.98 509.365 1802.92 517.216 1811.46C525.067 1819.99 535.136 1824.26 547.424 1824.26C559.712 1824.26 569.781 1819.99 577.632 1811.46C585.483 1802.92 589.408 1790.98 589.408 1775.62ZM933.312 1823.23V1920H890.304C811.115 1920 771.52 1880.58 771.52 1801.73V1725.95H735.68V1631.23H771.52V1561.6H885.184V1631.23H932.288V1725.95H885.184V1803.78C885.184 1810.6 886.72 1815.55 889.792 1818.62C893.205 1821.7 898.667 1823.23 906.176 1823.23H933.312ZM961.24 1775.62C961.24 1745.58 967.384 1719.47 979.672 1697.28C992.301 1674.75 1009.71 1657.51 1031.9 1645.57C1054.42 1633.62 1080.02 1627.65 1108.7 1627.65C1146.24 1627.65 1177.82 1638.23 1203.42 1659.39C1229.36 1680.55 1245.74 1709.91 1252.57 1747.46H1132.25C1127.81 1732.44 1119.11 1724.93 1106.14 1724.93C1096.92 1724.93 1089.58 1729.19 1084.12 1737.73C1079 1746.26 1076.44 1758.89 1076.44 1775.62C1076.44 1792.34 1079 1804.97 1084.12 1813.5C1089.58 1822.04 1096.92 1826.3 1106.14 1826.3C1119.11 1826.3 1127.81 1818.79 1132.25 1803.78H1252.57C1245.74 1841.32 1229.36 1870.68 1203.42 1891.84C1177.82 1913 1146.24 1923.58 1108.7 1923.58C1080.02 1923.58 1054.42 1917.61 1031.9 1905.66C1009.71 1893.72 992.301 1876.65 979.672 1854.46C967.384 1831.94 961.24 1805.65 961.24 1775.62ZM1490.84 1629.18C1523.95 1629.18 1549.72 1640.28 1568.15 1662.46C1586.93 1684.65 1596.31 1714.69 1596.31 1752.58V1920H1483.16V1766.91C1483.16 1753.26 1479.41 1742.51 1471.9 1734.66C1464.73 1726.46 1455 1722.37 1442.71 1722.37C1430.08 1722.37 1420.18 1726.46 1413.02 1734.66C1405.85 1742.51 1402.26 1753.26 1402.26 1766.91V1920H1288.6V1541.12H1402.26V1675.26C1411.14 1661.61 1422.91 1650.52 1437.59 1641.98C1452.61 1633.45 1470.36 1629.18 1490.84 1629.18Z" fill="#F0805C" fill-opacity="0.3"/>
<path d="M1634.34 1829.38C1680.07 1795.24 1716.26 1764.35 1742.88 1736.7C1769.5 1708.71 1782.82 1682.6 1782.82 1658.37C1782.82 1650.18 1780.94 1643.86 1777.18 1639.42C1773.77 1634.99 1769.16 1632.77 1763.36 1632.77C1756.53 1632.77 1751.07 1636.35 1746.98 1643.52C1743.22 1650.35 1741.86 1660.93 1742.88 1675.26H1632.8C1633.82 1643.52 1640.65 1617.41 1653.28 1596.93C1666.25 1576.45 1682.98 1561.43 1703.46 1551.87C1723.94 1542.31 1746.46 1537.54 1771.04 1537.54C1814.73 1537.54 1846.65 1548.12 1866.78 1569.28C1887.26 1590.1 1897.5 1616.9 1897.5 1649.66C1897.5 1684.14 1886.41 1716.57 1864.22 1746.94C1842.38 1776.98 1814.9 1802.41 1781.79 1823.23H1899.04V1914.88H1634.34V1829.38ZM2321.14 1629.18C2358 1629.18 2386.5 1640.28 2406.64 1662.46C2427.12 1684.65 2437.36 1714.69 2437.36 1752.58V1920H2324.21V1766.91C2324.21 1754.62 2320.45 1745.07 2312.94 1738.24C2305.78 1731.07 2296.05 1727.49 2283.76 1727.49C2271.13 1727.49 2261.23 1731.07 2254.06 1738.24C2246.9 1745.07 2243.31 1754.62 2243.31 1766.91V1920H2130.16V1766.91C2130.16 1754.62 2126.41 1745.07 2118.9 1738.24C2111.73 1731.07 2102 1727.49 2089.71 1727.49C2077.08 1727.49 2067.18 1731.07 2060.02 1738.24C2052.85 1745.07 2049.26 1754.62 2049.26 1766.91V1920H1935.6V1631.23H2049.26V1670.14C2057.46 1657.86 2068.55 1647.96 2082.54 1640.45C2096.88 1632.94 2113.61 1629.18 2132.72 1629.18C2153.54 1629.18 2171.97 1633.79 2188.02 1643.01C2204.06 1651.88 2216.86 1664.51 2226.42 1680.9C2237 1665.88 2250.48 1653.59 2266.86 1644.03C2283.25 1634.13 2301.34 1629.18 2321.14 1629.18ZM2471.24 1775.62C2471.24 1745.24 2476.36 1718.95 2486.6 1696.77C2497.18 1674.24 2511.52 1657.17 2529.61 1645.57C2547.7 1633.62 2568.01 1627.65 2590.54 1627.65C2609.31 1627.65 2625.52 1631.57 2639.18 1639.42C2652.83 1646.93 2663.24 1657.34 2670.41 1670.66V1631.23H2783.56V1920H2670.41V1880.58C2663.24 1893.89 2652.83 1904.47 2639.18 1912.32C2625.52 1919.83 2609.31 1923.58 2590.54 1923.58C2568.01 1923.58 2547.7 1917.78 2529.61 1906.18C2511.52 1894.23 2497.18 1877.16 2486.6 1854.98C2476.36 1832.45 2471.24 1805.99 2471.24 1775.62ZM2670.41 1775.62C2670.41 1760.26 2666.48 1748.31 2658.63 1739.78C2650.78 1731.24 2640.71 1726.98 2628.42 1726.98C2616.14 1726.98 2606.07 1731.24 2598.22 1739.78C2590.37 1748.31 2586.44 1760.26 2586.44 1775.62C2586.44 1790.98 2590.37 1802.92 2598.22 1811.46C2606.07 1819.99 2616.14 1824.26 2628.42 1824.26C2640.71 1824.26 2650.78 1819.99 2658.63 1811.46C2666.48 1802.92 2670.41 1790.98 2670.41 1775.62ZM3014.31 1823.23V1920H2971.3C2892.11 1920 2852.52 1880.58 2852.52 1801.73V1725.95H2816.68V1631.23H2852.52V1561.6H2966.18V1631.23H3013.29V1725.95H2966.18V1803.78C2966.18 1810.6 2967.72 1815.55 2970.79 1818.62C2974.21 1821.7 2979.67 1823.23 2987.18 1823.23H3014.31ZM3042.24 1775.62C3042.24 1745.58 3048.38 1719.47 3060.67 1697.28C3073.3 1674.75 3090.71 1657.51 3112.9 1645.57C3135.42 1633.62 3161.02 1627.65 3189.7 1627.65C3227.24 1627.65 3258.82 1638.23 3284.42 1659.39C3310.36 1680.55 3326.74 1709.91 3333.57 1747.46H3213.25C3208.81 1732.44 3200.11 1724.93 3187.14 1724.93C3177.92 1724.93 3170.58 1729.19 3165.12 1737.73C3160 1746.26 3157.44 1758.89 3157.44 1775.62C3157.44 1792.34 3160 1804.97 3165.12 1813.5C3170.58 1822.04 3177.92 1826.3 3187.14 1826.3C3200.11 1826.3 3208.81 1818.79 3213.25 1803.78H3333.57C3326.74 1841.32 3310.36 1870.68 3284.42 1891.84C3258.82 1913 3227.24 1923.58 3189.7 1923.58C3161.02 1923.58 3135.42 1917.61 3112.9 1905.66C3090.71 1893.72 3073.3 1876.65 3060.67 1854.46C3048.38 1831.94 3042.24 1805.65 3042.24 1775.62ZM3571.84 1629.18C3604.95 1629.18 3630.72 1640.28 3649.15 1662.46C3667.93 1684.65 3677.31 1714.69 3677.31 1752.58V1920H3564.16V1766.91C3564.16 1753.26 3560.41 1742.51 3552.9 1734.66C3545.73 1726.46 3536 1722.37 3523.71 1722.37C3511.08 1722.37 3501.18 1726.46 3494.02 1734.66C3486.85 1742.51 3483.26 1753.26 3483.26 1766.91V1920H3369.6V1541.12H3483.26V1675.26C3492.14 1661.61 3503.91 1650.52 3518.59 1641.98C3533.61 1633.45 3551.36 1629.18 3571.84 1629.18Z" fill="#F0805C" fill-opacity="0.3"/>
<path d="M-236.664 2224.38C-190.925 2190.24 -154.744 2159.35 -128.12 2131.7C-101.496 2103.71 -88.184 2077.6 -88.184 2053.37C-88.184 2045.18 -90.0613 2038.86 -93.816 2034.42C-97.2293 2029.99 -101.837 2027.77 -107.64 2027.77C-114.467 2027.77 -119.928 2031.35 -124.024 2038.52C-127.779 2045.35 -129.144 2055.93 -128.12 2070.26H-238.2C-237.176 2038.52 -230.349 2012.41 -217.72 1991.93C-204.749 1971.45 -188.024 1956.43 -167.544 1946.87C-147.064 1937.31 -124.536 1932.54 -99.96 1932.54C-56.2693 1932.54 -24.3547 1943.12 -4.21599 1964.28C16.264 1985.1 26.504 2011.9 26.504 2044.66C26.504 2079.14 15.4107 2111.57 -6.77599 2141.94C-28.6213 2171.98 -56.0987 2197.41 -89.208 2218.23H28.04V2309.88H-236.664V2224.38ZM450.136 2024.18C487 2024.18 515.501 2035.28 535.64 2057.46C556.12 2079.65 566.36 2109.69 566.36 2147.58V2315H453.208V2161.91C453.208 2149.62 449.453 2140.07 441.944 2133.24C434.776 2126.07 425.048 2122.49 412.76 2122.49C400.131 2122.49 390.232 2126.07 383.064 2133.24C375.896 2140.07 372.312 2149.62 372.312 2161.91V2315H259.16V2161.91C259.16 2149.62 255.405 2140.07 247.896 2133.24C240.728 2126.07 231 2122.49 218.712 2122.49C206.083 2122.49 196.184 2126.07 189.016 2133.24C181.848 2140.07 178.264 2149.62 178.264 2161.91V2315H64.6V2026.23H178.264V2065.14C186.456 2052.86 197.549 2042.96 211.544 2035.45C225.88 2027.94 242.605 2024.18 261.72 2024.18C282.541 2024.18 300.973 2028.79 317.016 2038.01C333.059 2046.88 345.859 2059.51 355.416 2075.9C365.997 2060.88 379.48 2048.59 395.864 2039.03C412.248 2029.13 430.339 2024.18 450.136 2024.18ZM600.24 2170.62C600.24 2140.24 605.36 2113.95 615.6 2091.77C626.181 2069.24 640.517 2052.17 658.608 2040.57C676.699 2028.62 697.008 2022.65 719.536 2022.65C738.309 2022.65 754.523 2026.57 768.176 2034.42C781.829 2041.93 792.24 2052.34 799.408 2065.66V2026.23H912.56V2315H799.408V2275.58C792.24 2288.89 781.829 2299.47 768.176 2307.32C754.523 2314.83 738.309 2318.58 719.536 2318.58C697.008 2318.58 676.699 2312.78 658.608 2301.18C640.517 2289.23 626.181 2272.16 615.6 2249.98C605.36 2227.45 600.24 2200.99 600.24 2170.62ZM799.408 2170.62C799.408 2155.26 795.483 2143.31 787.632 2134.78C779.781 2126.24 769.712 2121.98 757.424 2121.98C745.136 2121.98 735.067 2126.24 727.216 2134.78C719.365 2143.31 715.44 2155.26 715.44 2170.62C715.44 2185.98 719.365 2197.92 727.216 2206.46C735.067 2214.99 745.136 2219.26 757.424 2219.26C769.712 2219.26 779.781 2214.99 787.632 2206.46C795.483 2197.92 799.408 2185.98 799.408 2170.62ZM1143.31 2218.23V2315H1100.3C1021.11 2315 981.52 2275.58 981.52 2196.73V2120.95H945.68V2026.23H981.52V1956.6H1095.18V2026.23H1142.29V2120.95H1095.18V2198.78C1095.18 2205.6 1096.72 2210.55 1099.79 2213.62C1103.21 2216.7 1108.67 2218.23 1116.18 2218.23H1143.31ZM1171.24 2170.62C1171.24 2140.58 1177.38 2114.47 1189.67 2092.28C1202.3 2069.75 1219.71 2052.51 1241.9 2040.57C1264.42 2028.62 1290.02 2022.65 1318.7 2022.65C1356.24 2022.65 1387.82 2033.23 1413.42 2054.39C1439.36 2075.55 1455.74 2104.91 1462.57 2142.46H1342.25C1337.81 2127.44 1329.11 2119.93 1316.14 2119.93C1306.92 2119.93 1299.58 2124.19 1294.12 2132.73C1289 2141.26 1286.44 2153.89 1286.44 2170.62C1286.44 2187.34 1289 2199.97 1294.12 2208.5C1299.58 2217.04 1306.92 2221.3 1316.14 2221.3C1329.11 2221.3 1337.81 2213.79 1342.25 2198.78H1462.57C1455.74 2236.32 1439.36 2265.68 1413.42 2286.84C1387.82 2308 1356.24 2318.58 1318.7 2318.58C1290.02 2318.58 1264.42 2312.61 1241.9 2300.66C1219.71 2288.72 1202.3 2271.65 1189.67 2249.46C1177.38 2226.94 1171.24 2200.65 1171.24 2170.62ZM1700.84 2024.18C1733.95 2024.18 1759.72 2035.28 1778.15 2057.46C1796.93 2079.65 1806.31 2109.69 1806.31 2147.58V2315H1693.16V2161.91C1693.16 2148.26 1689.41 2137.51 1681.9 2129.66C1674.73 2121.46 1665 2117.37 1652.71 2117.37C1640.08 2117.37 1630.18 2121.46 1623.02 2129.66C1615.85 2137.51 1612.26 2148.26 1612.26 2161.91V2315H1498.6V1936.12H1612.26V2070.26C1621.14 2056.61 1632.91 2045.52 1647.59 2036.98C1662.61 2028.45 1680.36 2024.18 1700.84 2024.18Z" fill="#F0805C" fill-opacity="0.3"/>
<path d="M1844.34 2224.38C1890.07 2190.24 1926.26 2159.35 1952.88 2131.7C1979.5 2103.71 1992.82 2077.6 1992.82 2053.37C1992.82 2045.18 1990.94 2038.86 1987.18 2034.42C1983.77 2029.99 1979.16 2027.77 1973.36 2027.77C1966.53 2027.77 1961.07 2031.35 1956.98 2038.52C1953.22 2045.35 1951.86 2055.93 1952.88 2070.26H1842.8C1843.82 2038.52 1850.65 2012.41 1863.28 1991.93C1876.25 1971.45 1892.98 1956.43 1913.46 1946.87C1933.94 1937.31 1956.46 1932.54 1981.04 1932.54C2024.73 1932.54 2056.65 1943.12 2076.78 1964.28C2097.26 1985.1 2107.5 2011.9 2107.5 2044.66C2107.5 2079.14 2096.41 2111.57 2074.22 2141.94C2052.38 2171.98 2024.9 2197.41 1991.79 2218.23H2109.04V2309.88H1844.34V2224.38ZM2531.14 2024.18C2568 2024.18 2596.5 2035.28 2616.64 2057.46C2637.12 2079.65 2647.36 2109.69 2647.36 2147.58V2315H2534.21V2161.91C2534.21 2149.62 2530.45 2140.07 2522.94 2133.24C2515.78 2126.07 2506.05 2122.49 2493.76 2122.49C2481.13 2122.49 2471.23 2126.07 2464.06 2133.24C2456.9 2140.07 2453.31 2149.62 2453.31 2161.91V2315H2340.16V2161.91C2340.16 2149.62 2336.41 2140.07 2328.9 2133.24C2321.73 2126.07 2312 2122.49 2299.71 2122.49C2287.08 2122.49 2277.18 2126.07 2270.02 2133.24C2262.85 2140.07 2259.26 2149.62 2259.26 2161.91V2315H2145.6V2026.23H2259.26V2065.14C2267.46 2052.86 2278.55 2042.96 2292.54 2035.45C2306.88 2027.94 2323.61 2024.18 2342.72 2024.18C2363.54 2024.18 2381.97 2028.79 2398.02 2038.01C2414.06 2046.88 2426.86 2059.51 2436.42 2075.9C2447 2060.88 2460.48 2048.59 2476.86 2039.03C2493.25 2029.13 2511.34 2024.18 2531.14 2024.18ZM2681.24 2170.62C2681.24 2140.24 2686.36 2113.95 2696.6 2091.77C2707.18 2069.24 2721.52 2052.17 2739.61 2040.57C2757.7 2028.62 2778.01 2022.65 2800.54 2022.65C2819.31 2022.65 2835.52 2026.57 2849.18 2034.42C2862.83 2041.93 2873.24 2052.34 2880.41 2065.66V2026.23H2993.56V2315H2880.41V2275.58C2873.24 2288.89 2862.83 2299.47 2849.18 2307.32C2835.52 2314.83 2819.31 2318.58 2800.54 2318.58C2778.01 2318.58 2757.7 2312.78 2739.61 2301.18C2721.52 2289.23 2707.18 2272.16 2696.6 2249.98C2686.36 2227.45 2681.24 2200.99 2681.24 2170.62ZM2880.41 2170.62C2880.41 2155.26 2876.48 2143.31 2868.63 2134.78C2860.78 2126.24 2850.71 2121.98 2838.42 2121.98C2826.14 2121.98 2816.07 2126.24 2808.22 2134.78C2800.37 2143.31 2796.44 2155.26 2796.44 2170.62C2796.44 2185.98 2800.37 2197.92 2808.22 2206.46C2816.07 2214.99 2826.14 2219.26 2838.42 2219.26C2850.71 2219.26 2860.78 2214.99 2868.63 2206.46C2876.48 2197.92 2880.41 2185.98 2880.41 2170.62ZM3224.31 2218.23V2315H3181.3C3102.11 2315 3062.52 2275.58 3062.52 2196.73V2120.95H3026.68V2026.23H3062.52V1956.6H3176.18V2026.23H3223.29V2120.95H3176.18V2198.78C3176.18 2205.6 3177.72 2210.55 3180.79 2213.62C3184.21 2216.7 3189.67 2218.23 3197.18 2218.23H3224.31ZM3252.24 2170.62C3252.24 2140.58 3258.38 2114.47 3270.67 2092.28C3283.3 2069.75 3300.71 2052.51 3322.9 2040.57C3345.42 2028.62 3371.02 2022.65 3399.7 2022.65C3437.24 2022.65 3468.82 2033.23 3494.42 2054.39C3520.36 2075.55 3536.74 2104.91 3543.57 2142.46H3423.25C3418.81 2127.44 3410.11 2119.93 3397.14 2119.93C3387.92 2119.93 3380.58 2124.19 3375.12 2132.73C3370 2141.26 3367.44 2153.89 3367.44 2170.62C3367.44 2187.34 3370 2199.97 3375.12 2208.5C3380.58 2217.04 3387.92 2221.3 3397.14 2221.3C3410.11 2221.3 3418.81 2213.79 3423.25 2198.78H3543.57C3536.74 2236.32 3520.36 2265.68 3494.42 2286.84C3468.82 2308 3437.24 2318.58 3399.7 2318.58C3371.02 2318.58 3345.42 2312.61 3322.9 2300.66C3300.71 2288.72 3283.3 2271.65 3270.67 2249.46C3258.38 2226.94 3252.24 2200.65 3252.24 2170.62ZM3781.84 2024.18C3814.95 2024.18 3840.72 2035.28 3859.15 2057.46C3877.93 2079.65 3887.31 2109.69 3887.31 2147.58V2315H3774.16V2161.91C3774.16 2148.26 3770.41 2137.51 3762.9 2129.66C3755.73 2121.46 3746 2117.37 3733.71 2117.37C3721.08 2117.37 3711.18 2121.46 3704.02 2129.66C3696.85 2137.51 3693.26 2148.26 3693.26 2161.91V2315H3579.6V1936.12H3693.26V2070.26C3702.14 2056.61 3713.91 2045.52 3728.59 2036.98C3743.61 2028.45 3761.36 2024.18 3781.84 2024.18Z" fill="#F0805C" fill-opacity="0.3"/>
<path d="M-643.664 2608.38C-597.925 2574.24 -561.744 2543.35 -535.12 2515.7C-508.496 2487.71 -495.184 2461.6 -495.184 2437.37C-495.184 2429.18 -497.061 2422.86 -500.816 2418.42C-504.229 2413.99 -508.837 2411.77 -514.64 2411.77C-521.467 2411.77 -526.928 2415.35 -531.024 2422.52C-534.779 2429.35 -536.144 2439.93 -535.12 2454.26H-645.2C-644.176 2422.52 -637.349 2396.41 -624.72 2375.93C-611.749 2355.45 -595.024 2340.43 -574.544 2330.87C-554.064 2321.31 -531.536 2316.54 -506.96 2316.54C-463.269 2316.54 -431.355 2327.12 -411.216 2348.28C-390.736 2369.1 -380.496 2395.9 -380.496 2428.66C-380.496 2463.14 -391.589 2495.57 -413.776 2525.94C-435.621 2555.98 -463.099 2581.41 -496.208 2602.23H-378.96V2693.88H-643.664V2608.38ZM43.136 2408.18C80 2408.18 108.501 2419.28 128.64 2441.46C149.12 2463.65 159.36 2493.69 159.36 2531.58V2699H46.208V2545.91C46.208 2533.62 42.4533 2524.07 34.944 2517.24C27.776 2510.07 18.048 2506.49 5.76001 2506.49C-6.86932 2506.49 -16.768 2510.07 -23.936 2517.24C-31.104 2524.07 -34.688 2533.62 -34.688 2545.91V2699H-147.84V2545.91C-147.84 2533.62 -151.595 2524.07 -159.104 2517.24C-166.272 2510.07 -176 2506.49 -188.288 2506.49C-200.917 2506.49 -210.816 2510.07 -217.984 2517.24C-225.152 2524.07 -228.736 2533.62 -228.736 2545.91V2699H-342.4V2410.23H-228.736V2449.14C-220.544 2436.86 -209.451 2426.96 -195.456 2419.45C-181.12 2411.94 -164.395 2408.18 -145.28 2408.18C-124.459 2408.18 -106.027 2412.79 -89.984 2422.01C-73.9413 2430.88 -61.1413 2443.51 -51.584 2459.9C-41.0026 2444.88 -27.52 2432.59 -11.136 2423.03C5.24803 2413.13 23.3387 2408.18 43.136 2408.18ZM193.24 2554.62C193.24 2524.24 198.36 2497.95 208.6 2475.77C219.181 2453.24 233.517 2436.17 251.608 2424.57C269.699 2412.62 290.008 2406.65 312.536 2406.65C331.309 2406.65 347.523 2410.57 361.176 2418.42C374.829 2425.93 385.24 2436.34 392.408 2449.66V2410.23H505.56V2699H392.408V2659.58C385.24 2672.89 374.829 2683.47 361.176 2691.32C347.523 2698.83 331.309 2702.58 312.536 2702.58C290.008 2702.58 269.699 2696.78 251.608 2685.18C233.517 2673.23 219.181 2656.16 208.6 2633.98C198.36 2611.45 193.24 2584.99 193.24 2554.62ZM392.408 2554.62C392.408 2539.26 388.483 2527.31 380.632 2518.78C372.781 2510.24 362.712 2505.98 350.424 2505.98C338.136 2505.98 328.067 2510.24 320.216 2518.78C312.365 2527.31 308.44 2539.26 308.44 2554.62C308.44 2569.98 312.365 2581.92 320.216 2590.46C328.067 2598.99 338.136 2603.26 350.424 2603.26C362.712 2603.26 372.781 2598.99 380.632 2590.46C388.483 2581.92 392.408 2569.98 392.408 2554.62ZM736.312 2602.23V2699H693.304C614.115 2699 574.52 2659.58 574.52 2580.73V2504.95H538.68V2410.23H574.52V2340.6H688.184V2410.23H735.288V2504.95H688.184V2582.78C688.184 2589.6 689.72 2594.55 692.792 2597.62C696.205 2600.7 701.667 2602.23 709.176 2602.23H736.312ZM764.24 2554.62C764.24 2524.58 770.384 2498.47 782.672 2476.28C795.301 2453.75 812.709 2436.51 834.896 2424.57C857.424 2412.62 883.024 2406.65 911.696 2406.65C949.243 2406.65 980.816 2417.23 1006.42 2438.39C1032.36 2459.55 1048.74 2488.91 1055.57 2526.46H935.248C930.811 2511.44 922.107 2503.93 909.136 2503.93C899.92 2503.93 892.581 2508.19 887.12 2516.73C882 2525.26 879.44 2537.89 879.44 2554.62C879.44 2571.34 882 2583.97 887.12 2592.5C892.581 2601.04 899.92 2605.3 909.136 2605.3C922.107 2605.3 930.811 2597.79 935.248 2582.78H1055.57C1048.74 2620.32 1032.36 2649.68 1006.42 2670.84C980.816 2692 949.243 2702.58 911.696 2702.58C883.024 2702.58 857.424 2696.61 834.896 2684.66C812.709 2672.72 795.301 2655.65 782.672 2633.46C770.384 2610.94 764.24 2584.65 764.24 2554.62ZM1293.84 2408.18C1326.95 2408.18 1352.72 2419.28 1371.15 2441.46C1389.93 2463.65 1399.31 2493.69 1399.31 2531.58V2699H1286.16V2545.91C1286.16 2532.26 1282.41 2521.51 1274.9 2513.66C1267.73 2505.46 1258 2501.37 1245.71 2501.37C1233.08 2501.37 1223.18 2505.46 1216.02 2513.66C1208.85 2521.51 1205.26 2532.26 1205.26 2545.91V2699H1091.6V2320.12H1205.26V2454.26C1214.14 2440.61 1225.91 2429.52 1240.59 2420.98C1255.61 2412.45 1273.36 2408.18 1293.84 2408.18Z" fill="#F0805C" fill-opacity="0.3"/>
<path d="M1437.34 2608.38C1483.07 2574.24 1519.26 2543.35 1545.88 2515.7C1572.5 2487.71 1585.82 2461.6 1585.82 2437.37C1585.82 2429.18 1583.94 2422.86 1580.18 2418.42C1576.77 2413.99 1572.16 2411.77 1566.36 2411.77C1559.53 2411.77 1554.07 2415.35 1549.98 2422.52C1546.22 2429.35 1544.86 2439.93 1545.88 2454.26H1435.8C1436.82 2422.52 1443.65 2396.41 1456.28 2375.93C1469.25 2355.45 1485.98 2340.43 1506.46 2330.87C1526.94 2321.31 1549.46 2316.54 1574.04 2316.54C1617.73 2316.54 1649.65 2327.12 1669.78 2348.28C1690.26 2369.1 1700.5 2395.9 1700.5 2428.66C1700.5 2463.14 1689.41 2495.57 1667.22 2525.94C1645.38 2555.98 1617.9 2581.41 1584.79 2602.23H1702.04V2693.88H1437.34V2608.38ZM2124.14 2408.18C2161 2408.18 2189.5 2419.28 2209.64 2441.46C2230.12 2463.65 2240.36 2493.69 2240.36 2531.58V2699H2127.21V2545.91C2127.21 2533.62 2123.45 2524.07 2115.94 2517.24C2108.78 2510.07 2099.05 2506.49 2086.76 2506.49C2074.13 2506.49 2064.23 2510.07 2057.06 2517.24C2049.9 2524.07 2046.31 2533.62 2046.31 2545.91V2699H1933.16V2545.91C1933.16 2533.62 1929.41 2524.07 1921.9 2517.24C1914.73 2510.07 1905 2506.49 1892.71 2506.49C1880.08 2506.49 1870.18 2510.07 1863.02 2517.24C1855.85 2524.07 1852.26 2533.62 1852.26 2545.91V2699H1738.6V2410.23H1852.26V2449.14C1860.46 2436.86 1871.55 2426.96 1885.54 2419.45C1899.88 2411.94 1916.61 2408.18 1935.72 2408.18C1956.54 2408.18 1974.97 2412.79 1991.02 2422.01C2007.06 2430.88 2019.86 2443.51 2029.42 2459.9C2040 2444.88 2053.48 2432.59 2069.86 2423.03C2086.25 2413.13 2104.34 2408.18 2124.14 2408.18ZM2274.24 2554.62C2274.24 2524.24 2279.36 2497.95 2289.6 2475.77C2300.18 2453.24 2314.52 2436.17 2332.61 2424.57C2350.7 2412.62 2371.01 2406.65 2393.54 2406.65C2412.31 2406.65 2428.52 2410.57 2442.18 2418.42C2455.83 2425.93 2466.24 2436.34 2473.41 2449.66V2410.23H2586.56V2699H2473.41V2659.58C2466.24 2672.89 2455.83 2683.47 2442.18 2691.32C2428.52 2698.83 2412.31 2702.58 2393.54 2702.58C2371.01 2702.58 2350.7 2696.78 2332.61 2685.18C2314.52 2673.23 2300.18 2656.16 2289.6 2633.98C2279.36 2611.45 2274.24 2584.99 2274.24 2554.62ZM2473.41 2554.62C2473.41 2539.26 2469.48 2527.31 2461.63 2518.78C2453.78 2510.24 2443.71 2505.98 2431.42 2505.98C2419.14 2505.98 2409.07 2510.24 2401.22 2518.78C2393.37 2527.31 2389.44 2539.26 2389.44 2554.62C2389.44 2569.98 2393.37 2581.92 2401.22 2590.46C2409.07 2598.99 2419.14 2603.26 2431.42 2603.26C2443.71 2603.26 2453.78 2598.99 2461.63 2590.46C2469.48 2581.92 2473.41 2569.98 2473.41 2554.62ZM2817.31 2602.23V2699H2774.3C2695.11 2699 2655.52 2659.58 2655.52 2580.73V2504.95H2619.68V2410.23H2655.52V2340.6H2769.18V2410.23H2816.29V2504.95H2769.18V2582.78C2769.18 2589.6 2770.72 2594.55 2773.79 2597.62C2777.21 2600.7 2782.67 2602.23 2790.18 2602.23H2817.31ZM2845.24 2554.62C2845.24 2524.58 2851.38 2498.47 2863.67 2476.28C2876.3 2453.75 2893.71 2436.51 2915.9 2424.57C2938.42 2412.62 2964.02 2406.65 2992.7 2406.65C3030.24 2406.65 3061.82 2417.23 3087.42 2438.39C3113.36 2459.55 3129.74 2488.91 3136.57 2526.46H3016.25C3011.81 2511.44 3003.11 2503.93 2990.14 2503.93C2980.92 2503.93 2973.58 2508.19 2968.12 2516.73C2963 2525.26 2960.44 2537.89 2960.44 2554.62C2960.44 2571.34 2963 2583.97 2968.12 2592.5C2973.58 2601.04 2980.92 2605.3 2990.14 2605.3C3003.11 2605.3 3011.81 2597.79 3016.25 2582.78H3136.57C3129.74 2620.32 3113.36 2649.68 3087.42 2670.84C3061.82 2692 3030.24 2702.58 2992.7 2702.58C2964.02 2702.58 2938.42 2696.61 2915.9 2684.66C2893.71 2672.72 2876.3 2655.65 2863.67 2633.46C2851.38 2610.94 2845.24 2584.65 2845.24 2554.62ZM3374.84 2408.18C3407.95 2408.18 3433.72 2419.28 3452.15 2441.46C3470.93 2463.65 3480.31 2493.69 3480.31 2531.58V2699H3367.16V2545.91C3367.16 2532.26 3363.41 2521.51 3355.9 2513.66C3348.73 2505.46 3339 2501.37 3326.71 2501.37C3314.08 2501.37 3304.18 2505.46 3297.02 2513.66C3289.85 2521.51 3286.26 2532.26 3286.26 2545.91V2699H3172.6V2320.12H3286.26V2454.26C3295.14 2440.61 3306.91 2429.52 3321.59 2420.98C3336.61 2412.45 3354.36 2408.18 3374.84 2408.18Z" fill="#F0805C" fill-opacity="0.3"/>
<path d="M-846.664 3008.38C-800.925 2974.24 -764.744 2943.35 -738.12 2915.7C-711.496 2887.71 -698.184 2861.6 -698.184 2837.37C-698.184 2829.18 -700.061 2822.86 -703.816 2818.42C-707.229 2813.99 -711.837 2811.77 -717.64 2811.77C-724.467 2811.77 -729.928 2815.35 -734.024 2822.52C-737.779 2829.35 -739.144 2839.93 -738.12 2854.26H-848.2C-847.176 2822.52 -840.349 2796.41 -827.72 2775.93C-814.749 2755.45 -798.024 2740.43 -777.544 2730.87C-757.064 2721.31 -734.536 2716.54 -709.96 2716.54C-666.269 2716.54 -634.355 2727.12 -614.216 2748.28C-593.736 2769.1 -583.496 2795.9 -583.496 2828.66C-583.496 2863.14 -594.589 2895.57 -616.776 2925.94C-638.621 2955.98 -666.099 2981.41 -699.208 3002.23H-581.96V3093.88H-846.664V3008.38ZM-159.864 2808.18C-123 2808.18 -94.4986 2819.28 -74.36 2841.46C-53.88 2863.65 -43.64 2893.69 -43.64 2931.58V3099H-156.792V2945.91C-156.792 2933.62 -160.547 2924.07 -168.056 2917.24C-175.224 2910.07 -184.952 2906.49 -197.24 2906.49C-209.869 2906.49 -219.768 2910.07 -226.936 2917.24C-234.104 2924.07 -237.688 2933.62 -237.688 2945.91V3099H-350.84V2945.91C-350.84 2933.62 -354.595 2924.07 -362.104 2917.24C-369.272 2910.07 -379 2906.49 -391.288 2906.49C-403.917 2906.49 -413.816 2910.07 -420.984 2917.24C-428.152 2924.07 -431.736 2933.62 -431.736 2945.91V3099H-545.4V2810.23H-431.736V2849.14C-423.544 2836.86 -412.451 2826.96 -398.456 2819.45C-384.12 2811.94 -367.395 2808.18 -348.28 2808.18C-327.459 2808.18 -309.027 2812.79 -292.984 2822.01C-276.941 2830.88 -264.141 2843.51 -254.584 2859.9C-244.003 2844.88 -230.52 2832.59 -214.136 2823.03C-197.752 2813.13 -179.661 2808.18 -159.864 2808.18ZM-9.76 2954.62C-9.76 2924.24 -4.64 2897.95 5.6 2875.77C16.1813 2853.24 30.5173 2836.17 48.608 2824.57C66.6987 2812.62 87.008 2806.65 109.536 2806.65C128.309 2806.65 144.523 2810.57 158.176 2818.42C171.829 2825.93 182.24 2836.34 189.408 2849.66V2810.23H302.56V3099H189.408V3059.58C182.24 3072.89 171.829 3083.47 158.176 3091.32C144.523 3098.83 128.309 3102.58 109.536 3102.58C87.008 3102.58 66.6987 3096.78 48.608 3085.18C30.5173 3073.23 16.1813 3056.16 5.6 3033.98C-4.64 3011.45 -9.76 2984.99 -9.76 2954.62ZM189.408 2954.62C189.408 2939.26 185.483 2927.31 177.632 2918.78C169.781 2910.24 159.712 2905.98 147.424 2905.98C135.136 2905.98 125.067 2910.24 117.216 2918.78C109.365 2927.31 105.44 2939.26 105.44 2954.62C105.44 2969.98 109.365 2981.92 117.216 2990.46C125.067 2998.99 135.136 3003.26 147.424 3003.26C159.712 3003.26 169.781 2998.99 177.632 2990.46C185.483 2981.92 189.408 2969.98 189.408 2954.62ZM533.312 3002.23V3099H490.304C411.115 3099 371.52 3059.58 371.52 2980.73V2904.95H335.68V2810.23H371.52V2740.6H485.184V2810.23H532.288V2904.95H485.184V2982.78C485.184 2989.6 486.72 2994.55 489.792 2997.62C493.205 3000.7 498.667 3002.23 506.176 3002.23H533.312ZM561.24 2954.62C561.24 2924.58 567.384 2898.47 579.672 2876.28C592.301 2853.75 609.709 2836.51 631.896 2824.57C654.424 2812.62 680.024 2806.65 708.696 2806.65C746.243 2806.65 777.816 2817.23 803.416 2838.39C829.357 2859.55 845.741 2888.91 852.568 2926.46H732.248C727.811 2911.44 719.107 2903.93 706.136 2903.93C696.92 2903.93 689.581 2908.19 684.12 2916.73C679 2925.26 676.44 2937.89 676.44 2954.62C676.44 2971.34 679 2983.97 684.12 2992.5C689.581 3001.04 696.92 3005.3 706.136 3005.3C719.107 3005.3 727.811 2997.79 732.248 2982.78H852.568C845.741 3020.32 829.357 3049.68 803.416 3070.84C777.816 3092 746.243 3102.58 708.696 3102.58C680.024 3102.58 654.424 3096.61 631.896 3084.66C609.709 3072.72 592.301 3055.65 579.672 3033.46C567.384 3010.94 561.24 2984.65 561.24 2954.62ZM1090.84 2808.18C1123.95 2808.18 1149.72 2819.28 1168.15 2841.46C1186.93 2863.65 1196.31 2893.69 1196.31 2931.58V3099H1083.16V2945.91C1083.16 2932.26 1079.41 2921.51 1071.9 2913.66C1064.73 2905.46 1055 2901.37 1042.71 2901.37C1030.08 2901.37 1020.18 2905.46 1013.02 2913.66C1005.85 2921.51 1002.26 2932.26 1002.26 2945.91V3099H888.6V2720.12H1002.26V2854.26C1011.14 2840.61 1022.91 2829.52 1037.59 2820.98C1052.61 2812.45 1070.36 2808.18 1090.84 2808.18Z" fill="#F0805C" fill-opacity="0.3"/>
<path d="M1234.34 3008.38C1280.07 2974.24 1316.26 2943.35 1342.88 2915.7C1369.5 2887.71 1382.82 2861.6 1382.82 2837.37C1382.82 2829.18 1380.94 2822.86 1377.18 2818.42C1373.77 2813.99 1369.16 2811.77 1363.36 2811.77C1356.53 2811.77 1351.07 2815.35 1346.98 2822.52C1343.22 2829.35 1341.86 2839.93 1342.88 2854.26H1232.8C1233.82 2822.52 1240.65 2796.41 1253.28 2775.93C1266.25 2755.45 1282.98 2740.43 1303.46 2730.87C1323.94 2721.31 1346.46 2716.54 1371.04 2716.54C1414.73 2716.54 1446.65 2727.12 1466.78 2748.28C1487.26 2769.1 1497.5 2795.9 1497.5 2828.66C1497.5 2863.14 1486.41 2895.57 1464.22 2925.94C1442.38 2955.98 1414.9 2981.41 1381.79 3002.23H1499.04V3093.88H1234.34V3008.38ZM1921.14 2808.18C1958 2808.18 1986.5 2819.28 2006.64 2841.46C2027.12 2863.65 2037.36 2893.69 2037.36 2931.58V3099H1924.21V2945.91C1924.21 2933.62 1920.45 2924.07 1912.94 2917.24C1905.78 2910.07 1896.05 2906.49 1883.76 2906.49C1871.13 2906.49 1861.23 2910.07 1854.06 2917.24C1846.9 2924.07 1843.31 2933.62 1843.31 2945.91V3099H1730.16V2945.91C1730.16 2933.62 1726.41 2924.07 1718.9 2917.24C1711.73 2910.07 1702 2906.49 1689.71 2906.49C1677.08 2906.49 1667.18 2910.07 1660.02 2917.24C1652.85 2924.07 1649.26 2933.62 1649.26 2945.91V3099H1535.6V2810.23H1649.26V2849.14C1657.46 2836.86 1668.55 2826.96 1682.54 2819.45C1696.88 2811.94 1713.61 2808.18 1732.72 2808.18C1753.54 2808.18 1771.97 2812.79 1788.02 2822.01C1804.06 2830.88 1816.86 2843.51 1826.42 2859.9C1837 2844.88 1850.48 2832.59 1866.86 2823.03C1883.25 2813.13 1901.34 2808.18 1921.14 2808.18ZM2071.24 2954.62C2071.24 2924.24 2076.36 2897.95 2086.6 2875.77C2097.18 2853.24 2111.52 2836.17 2129.61 2824.57C2147.7 2812.62 2168.01 2806.65 2190.54 2806.65C2209.31 2806.65 2225.52 2810.57 2239.18 2818.42C2252.83 2825.93 2263.24 2836.34 2270.41 2849.66V2810.23H2383.56V3099H2270.41V3059.58C2263.24 3072.89 2252.83 3083.47 2239.18 3091.32C2225.52 3098.83 2209.31 3102.58 2190.54 3102.58C2168.01 3102.58 2147.7 3096.78 2129.61 3085.18C2111.52 3073.23 2097.18 3056.16 2086.6 3033.98C2076.36 3011.45 2071.24 2984.99 2071.24 2954.62ZM2270.41 2954.62C2270.41 2939.26 2266.48 2927.31 2258.63 2918.78C2250.78 2910.24 2240.71 2905.98 2228.42 2905.98C2216.14 2905.98 2206.07 2910.24 2198.22 2918.78C2190.37 2927.31 2186.44 2939.26 2186.44 2954.62C2186.44 2969.98 2190.37 2981.92 2198.22 2990.46C2206.07 2998.99 2216.14 3003.26 2228.42 3003.26C2240.71 3003.26 2250.78 2998.99 2258.63 2990.46C2266.48 2981.92 2270.41 2969.98 2270.41 2954.62ZM2614.31 3002.23V3099H2571.3C2492.11 3099 2452.52 3059.58 2452.52 2980.73V2904.95H2416.68V2810.23H2452.52V2740.6H2566.18V2810.23H2613.29V2904.95H2566.18V2982.78C2566.18 2989.6 2567.72 2994.55 2570.79 2997.62C2574.21 3000.7 2579.67 3002.23 2587.18 3002.23H2614.31ZM2642.24 2954.62C2642.24 2924.58 2648.38 2898.47 2660.67 2876.28C2673.3 2853.75 2690.71 2836.51 2712.9 2824.57C2735.42 2812.62 2761.02 2806.65 2789.7 2806.65C2827.24 2806.65 2858.82 2817.23 2884.42 2838.39C2910.36 2859.55 2926.74 2888.91 2933.57 2926.46H2813.25C2808.81 2911.44 2800.11 2903.93 2787.14 2903.93C2777.92 2903.93 2770.58 2908.19 2765.12 2916.73C2760 2925.26 2757.44 2937.89 2757.44 2954.62C2757.44 2971.34 2760 2983.97 2765.12 2992.5C2770.58 3001.04 2777.92 3005.3 2787.14 3005.3C2800.11 3005.3 2808.81 2997.79 2813.25 2982.78H2933.57C2926.74 3020.32 2910.36 3049.68 2884.42 3070.84C2858.82 3092 2827.24 3102.58 2789.7 3102.58C2761.02 3102.58 2735.42 3096.61 2712.9 3084.66C2690.71 3072.72 2673.3 3055.65 2660.67 3033.46C2648.38 3010.94 2642.24 2984.65 2642.24 2954.62ZM3171.84 2808.18C3204.95 2808.18 3230.72 2819.28 3249.15 2841.46C3267.93 2863.65 3277.31 2893.69 3277.31 2931.58V3099H3164.16V2945.91C3164.16 2932.26 3160.41 2921.51 3152.9 2913.66C3145.73 2905.46 3136 2901.37 3123.71 2901.37C3111.08 2901.37 3101.18 2905.46 3094.02 2913.66C3086.85 2921.51 3083.26 2932.26 3083.26 2945.91V3099H2969.6V2720.12H3083.26V2854.26C3092.14 2840.61 3103.91 2829.52 3118.59 2820.98C3133.61 2812.45 3151.36 2808.18 3171.84 2808.18Z" fill="#F0805C" fill-opacity="0.3"/>
<path d="M-768.664 3399.38C-722.925 3365.24 -686.744 3334.35 -660.12 3306.7C-633.496 3278.71 -620.184 3252.6 -620.184 3228.37C-620.184 3220.18 -622.061 3213.86 -625.816 3209.42C-629.229 3204.99 -633.837 3202.77 -639.64 3202.77C-646.467 3202.77 -651.928 3206.35 -656.024 3213.52C-659.779 3220.35 -661.144 3230.93 -660.12 3245.26H-770.2C-769.176 3213.52 -762.349 3187.41 -749.72 3166.93C-736.749 3146.45 -720.024 3131.43 -699.544 3121.87C-679.064 3112.31 -656.536 3107.54 -631.96 3107.54C-588.269 3107.54 -556.355 3118.12 -536.216 3139.28C-515.736 3160.1 -505.496 3186.9 -505.496 3219.66C-505.496 3254.14 -516.589 3286.57 -538.776 3316.94C-560.621 3346.98 -588.099 3372.41 -621.208 3393.23H-503.96V3484.88H-768.664V3399.38ZM-81.864 3199.18C-45 3199.18 -16.4986 3210.28 3.64001 3232.46C24.12 3254.65 34.36 3284.69 34.36 3322.58V3490H-78.792V3336.91C-78.792 3324.62 -82.5467 3315.07 -90.056 3308.24C-97.224 3301.07 -106.952 3297.49 -119.24 3297.49C-131.869 3297.49 -141.768 3301.07 -148.936 3308.24C-156.104 3315.07 -159.688 3324.62 -159.688 3336.91V3490H-272.84V3336.91C-272.84 3324.62 -276.595 3315.07 -284.104 3308.24C-291.272 3301.07 -301 3297.49 -313.288 3297.49C-325.917 3297.49 -335.816 3301.07 -342.984 3308.24C-350.152 3315.07 -353.736 3324.62 -353.736 3336.91V3490H-467.4V3201.23H-353.736V3240.14C-345.544 3227.86 -334.451 3217.96 -320.456 3210.45C-306.12 3202.94 -289.395 3199.18 -270.28 3199.18C-249.459 3199.18 -231.027 3203.79 -214.984 3213.01C-198.941 3221.88 -186.141 3234.51 -176.584 3250.9C-166.003 3235.88 -152.52 3223.59 -136.136 3214.03C-119.752 3204.13 -101.661 3199.18 -81.864 3199.18ZM68.24 3345.62C68.24 3315.24 73.36 3288.95 83.6 3266.77C94.1813 3244.24 108.517 3227.17 126.608 3215.57C144.699 3203.62 165.008 3197.65 187.536 3197.65C206.309 3197.65 222.523 3201.57 236.176 3209.42C249.829 3216.93 260.24 3227.34 267.408 3240.66V3201.23H380.56V3490H267.408V3450.58C260.24 3463.89 249.829 3474.47 236.176 3482.32C222.523 3489.83 206.309 3493.58 187.536 3493.58C165.008 3493.58 144.699 3487.78 126.608 3476.18C108.517 3464.23 94.1813 3447.16 83.6 3424.98C73.36 3402.45 68.24 3375.99 68.24 3345.62ZM267.408 3345.62C267.408 3330.26 263.483 3318.31 255.632 3309.78C247.781 3301.24 237.712 3296.98 225.424 3296.98C213.136 3296.98 203.067 3301.24 195.216 3309.78C187.365 3318.31 183.44 3330.26 183.44 3345.62C183.44 3360.98 187.365 3372.92 195.216 3381.46C203.067 3389.99 213.136 3394.26 225.424 3394.26C237.712 3394.26 247.781 3389.99 255.632 3381.46C263.483 3372.92 267.408 3360.98 267.408 3345.62ZM611.312 3393.23V3490H568.304C489.115 3490 449.52 3450.58 449.52 3371.73V3295.95H413.68V3201.23H449.52V3131.6H563.184V3201.23H610.288V3295.95H563.184V3373.78C563.184 3380.6 564.72 3385.55 567.792 3388.62C571.205 3391.7 576.667 3393.23 584.176 3393.23H611.312ZM639.24 3345.62C639.24 3315.58 645.384 3289.47 657.672 3267.28C670.301 3244.75 687.709 3227.51 709.896 3215.57C732.424 3203.62 758.024 3197.65 786.696 3197.65C824.243 3197.65 855.816 3208.23 881.416 3229.39C907.357 3250.55 923.741 3279.91 930.568 3317.46H810.248C805.811 3302.44 797.107 3294.93 784.136 3294.93C774.92 3294.93 767.581 3299.19 762.12 3307.73C757 3316.26 754.44 3328.89 754.44 3345.62C754.44 3362.34 757 3374.97 762.12 3383.5C767.581 3392.04 774.92 3396.3 784.136 3396.3C797.107 3396.3 805.811 3388.79 810.248 3373.78H930.568C923.741 3411.32 907.357 3440.68 881.416 3461.84C855.816 3483 824.243 3493.58 786.696 3493.58C758.024 3493.58 732.424 3487.61 709.896 3475.66C687.709 3463.72 670.301 3446.65 657.672 3424.46C645.384 3401.94 639.24 3375.65 639.24 3345.62ZM1168.84 3199.18C1201.95 3199.18 1227.72 3210.28 1246.15 3232.46C1264.93 3254.65 1274.31 3284.69 1274.31 3322.58V3490H1161.16V3336.91C1161.16 3323.26 1157.41 3312.51 1149.9 3304.66C1142.73 3296.46 1133 3292.37 1120.71 3292.37C1108.08 3292.37 1098.18 3296.46 1091.02 3304.66C1083.85 3312.51 1080.26 3323.26 1080.26 3336.91V3490H966.6V3111.12H1080.26V3245.26C1089.14 3231.61 1100.91 3220.52 1115.59 3211.98C1130.61 3203.45 1148.36 3199.18 1168.84 3199.18Z" fill="#F0805C" fill-opacity="0.3"/>
<path d="M1312.34 3399.38C1358.07 3365.24 1394.26 3334.35 1420.88 3306.7C1447.5 3278.71 1460.82 3252.6 1460.82 3228.37C1460.82 3220.18 1458.94 3213.86 1455.18 3209.42C1451.77 3204.99 1447.16 3202.77 1441.36 3202.77C1434.53 3202.77 1429.07 3206.35 1424.98 3213.52C1421.22 3220.35 1419.86 3230.93 1420.88 3245.26H1310.8C1311.82 3213.52 1318.65 3187.41 1331.28 3166.93C1344.25 3146.45 1360.98 3131.43 1381.46 3121.87C1401.94 3112.31 1424.46 3107.54 1449.04 3107.54C1492.73 3107.54 1524.65 3118.12 1544.78 3139.28C1565.26 3160.1 1575.5 3186.9 1575.5 3219.66C1575.5 3254.14 1564.41 3286.57 1542.22 3316.94C1520.38 3346.98 1492.9 3372.41 1459.79 3393.23H1577.04V3484.88H1312.34V3399.38ZM1999.14 3199.18C2036 3199.18 2064.5 3210.28 2084.64 3232.46C2105.12 3254.65 2115.36 3284.69 2115.36 3322.58V3490H2002.21V3336.91C2002.21 3324.62 1998.45 3315.07 1990.94 3308.24C1983.78 3301.07 1974.05 3297.49 1961.76 3297.49C1949.13 3297.49 1939.23 3301.07 1932.06 3308.24C1924.9 3315.07 1921.31 3324.62 1921.31 3336.91V3490H1808.16V3336.91C1808.16 3324.62 1804.41 3315.07 1796.9 3308.24C1789.73 3301.07 1780 3297.49 1767.71 3297.49C1755.08 3297.49 1745.18 3301.07 1738.02 3308.24C1730.85 3315.07 1727.26 3324.62 1727.26 3336.91V3490H1613.6V3201.23H1727.26V3240.14C1735.46 3227.86 1746.55 3217.96 1760.54 3210.45C1774.88 3202.94 1791.61 3199.18 1810.72 3199.18C1831.54 3199.18 1849.97 3203.79 1866.02 3213.01C1882.06 3221.88 1894.86 3234.51 1904.42 3250.9C1915 3235.88 1928.48 3223.59 1944.86 3214.03C1961.25 3204.13 1979.34 3199.18 1999.14 3199.18ZM2149.24 3345.62C2149.24 3315.24 2154.36 3288.95 2164.6 3266.77C2175.18 3244.24 2189.52 3227.17 2207.61 3215.57C2225.7 3203.62 2246.01 3197.65 2268.54 3197.65C2287.31 3197.65 2303.52 3201.57 2317.18 3209.42C2330.83 3216.93 2341.24 3227.34 2348.41 3240.66V3201.23H2461.56V3490H2348.41V3450.58C2341.24 3463.89 2330.83 3474.47 2317.18 3482.32C2303.52 3489.83 2287.31 3493.58 2268.54 3493.58C2246.01 3493.58 2225.7 3487.78 2207.61 3476.18C2189.52 3464.23 2175.18 3447.16 2164.6 3424.98C2154.36 3402.45 2149.24 3375.99 2149.24 3345.62ZM2348.41 3345.62C2348.41 3330.26 2344.48 3318.31 2336.63 3309.78C2328.78 3301.24 2318.71 3296.98 2306.42 3296.98C2294.14 3296.98 2284.07 3301.24 2276.22 3309.78C2268.37 3318.31 2264.44 3330.26 2264.44 3345.62C2264.44 3360.98 2268.37 3372.92 2276.22 3381.46C2284.07 3389.99 2294.14 3394.26 2306.42 3394.26C2318.71 3394.26 2328.78 3389.99 2336.63 3381.46C2344.48 3372.92 2348.41 3360.98 2348.41 3345.62ZM2692.31 3393.23V3490H2649.3C2570.11 3490 2530.52 3450.58 2530.52 3371.73V3295.95H2494.68V3201.23H2530.52V3131.6H2644.18V3201.23H2691.29V3295.95H2644.18V3373.78C2644.18 3380.6 2645.72 3385.55 2648.79 3388.62C2652.21 3391.7 2657.67 3393.23 2665.18 3393.23H2692.31ZM2720.24 3345.62C2720.24 3315.58 2726.38 3289.47 2738.67 3267.28C2751.3 3244.75 2768.71 3227.51 2790.9 3215.57C2813.42 3203.62 2839.02 3197.65 2867.7 3197.65C2905.24 3197.65 2936.82 3208.23 2962.42 3229.39C2988.36 3250.55 3004.74 3279.91 3011.57 3317.46H2891.25C2886.81 3302.44 2878.11 3294.93 2865.14 3294.93C2855.92 3294.93 2848.58 3299.19 2843.12 3307.73C2838 3316.26 2835.44 3328.89 2835.44 3345.62C2835.44 3362.34 2838 3374.97 2843.12 3383.5C2848.58 3392.04 2855.92 3396.3 2865.14 3396.3C2878.11 3396.3 2886.81 3388.79 2891.25 3373.78H3011.57C3004.74 3411.32 2988.36 3440.68 2962.42 3461.84C2936.82 3483 2905.24 3493.58 2867.7 3493.58C2839.02 3493.58 2813.42 3487.61 2790.9 3475.66C2768.71 3463.72 2751.3 3446.65 2738.67 3424.46C2726.38 3401.94 2720.24 3375.65 2720.24 3345.62ZM3249.84 3199.18C3282.95 3199.18 3308.72 3210.28 3327.15 3232.46C3345.93 3254.65 3355.31 3284.69 3355.31 3322.58V3490H3242.16V3336.91C3242.16 3323.26 3238.41 3312.51 3230.9 3304.66C3223.73 3296.46 3214 3292.37 3201.71 3292.37C3189.08 3292.37 3179.18 3296.46 3172.02 3304.66C3164.85 3312.51 3161.26 3323.26 3161.26 3336.91V3490H3047.6V3111.12H3161.26V3245.26C3170.14 3231.61 3181.91 3220.52 3196.59 3211.98C3211.61 3203.45 3229.36 3199.18 3249.84 3199.18Z" fill="#F0805C" fill-opacity="0.3"/>
</svg>
