<svg width="30" height="30" viewBox="0 0 30 30" fill="none" xmlns="http://www.w3.org/2000/svg">
<path d="M24.6 2.3999H5.4C3.744 2.3999 2.4 3.7439 2.4 5.3999V24.5999C2.4 26.2559 3.744 27.5999 5.4 27.5999H24.6C26.256 27.5999 27.6 26.2559 27.6 24.5999V5.3999C27.6 3.7439 26.256 2.3999 24.6 2.3999ZM10.2 11.9999V23.3999H6.6V11.9999H10.2ZM6.6 8.6819C6.6 7.8419 7.32 7.1999 8.4 7.1999C9.48 7.1999 10.158 7.8419 10.2 8.6819C10.2 9.5219 9.528 10.1999 8.4 10.1999C7.32 10.1999 6.6 9.5219 6.6 8.6819ZM23.4 23.3999H19.8C19.8 23.3999 19.8 17.8439 19.8 17.3999C19.8 16.1999 19.2 14.9999 17.7 14.9759H17.652C16.2 14.9759 15.6 16.2119 15.6 17.3999C15.6 17.9459 15.6 23.3999 15.6 23.3999H12V11.9999H15.6V13.5359C15.6 13.5359 16.758 11.9999 19.086 11.9999C21.468 11.9999 23.4 13.6379 23.4 16.9559V23.3999Z" fill="black"/>
</svg>
